<svg xmlns="http://www.w3.org/2000/svg" width="0" height="0" style="position:absolute" aria-hidden="true">

  <symbol id="mark" viewBox="0 0 64 64">
    <path d="M 14 4 H 50 a 10 10 0 0 1 10 10 V 36 L 36 60 H 14 a 10 10 0 0 1 -10 -10 V 14 a 10 10 0 0 1 10 -10 Z" fill="#0b1020"/>
    <path d="M 60 36 L 36 60 L 36 56.8 L 56.8 36 Z" fill="#22d3ee"/>
    <text x="30" y="45" text-anchor="middle"
          font-family="ui-sans-serif, system-ui, -apple-system, 'SF Pro Display', 'Helvetica Neue', Inter, Arial, sans-serif"
          font-size="44" font-weight="800" fill="#f6f5f1"
          style="font-feature-settings:'kern' 1;">æ</text>
  </symbol>

  <symbol id="mark-mono" viewBox="0 0 64 64">
    <path d="M 14 4 H 50 a 10 10 0 0 1 10 10 V 36 L 36 60 H 14 a 10 10 0 0 1 -10 -10 V 14 a 10 10 0 0 1 10 -10 Z" fill="currentColor"/>
    <text x="30" y="45" text-anchor="middle"
          font-family="ui-sans-serif, system-ui, -apple-system, 'SF Pro Display', 'Helvetica Neue', Inter, Arial, sans-serif"
          font-size="44" font-weight="800" fill="#ffffff"
          style="font-feature-settings:'kern' 1;">æ</text>
  </symbol>

  <symbol id="wordmark" viewBox="0 0 260 80">
    <text x="0" y="60"
          font-family="ui-sans-serif, system-ui, -apple-system, 'SF Pro Display', 'Helvetica Neue', Inter, Arial, sans-serif"
          font-size="64" font-weight="800"
          style="font-feature-settings:'kern' 1; letter-spacing:-0.01em;">
      <tspan fill="currentColor">im</tspan><tspan fill="#22d3ee">æ</tspan><tspan fill="currentColor">dge</tspan>
    </text>
  </symbol>

</svg>
